<svg width="38" height="21" viewBox="0 0 38 21" fill="none" xmlns="http://www.w3.org/2000/svg">
<g opacity="0.2">
<path d="M0 7.84073C0.0933097 6.23238 0.544307 4.84334 1.35299 3.67363C2.16167 2.48564 3.23474 1.58094 4.57218 0.959531C5.92517 0.319844 7.44923 0 9.14435 0C10.7617 0 12.1691 0.292428 13.3666 0.877285C14.5796 1.44386 15.5205 2.2389 16.1892 3.2624C16.858 4.2859 17.1923 5.47389 17.1923 6.82637C17.1923 7.86815 16.9513 8.84595 16.4692 9.75979C15.9871 10.6554 15.2328 11.5418 14.2064 12.4191C13.18 13.2781 11.8348 14.1828 10.1708 15.1332L5.36531 17.9569L5.17869 16.5039H17.6822V21H0.373239V17.0522L7.88467 12.0901C9.05104 11.3042 9.95304 10.6462 10.5907 10.1162C11.2438 9.56789 11.7026 9.06527 11.967 8.60836C12.2469 8.15144 12.3869 7.6671 12.3869 7.15535C12.3869 6.58877 12.2547 6.10444 11.9903 5.70235C11.7415 5.28198 11.3605 4.953 10.8473 4.7154C10.3341 4.47781 9.70421 4.35901 8.95773 4.35901C8.02464 4.35901 7.26261 4.5235 6.67164 4.85248C6.08068 5.16319 5.63746 5.58355 5.34198 6.11358C5.0465 6.62533 4.86766 7.20104 4.80545 7.84073H0Z" fill="#CCCCCC"/>
<path d="M35.2002 0.438642V21H30.4181V2.93342H31.8877L22.79 14.7493L22.7667 12.9674H37.9995V17.1619H19.2442V13.1593L29.0884 0.438642H35.2002Z" fill="#CCCCCC"/>
</g>
</svg>
