<svg width="23" height="18" viewBox="0 0 23 18" fill="none" xmlns="http://www.w3.org/2000/svg">
<path d="M13.2976 0H4.62599C4.23235 0 3.91322 0.30606 3.91322 0.683576C3.91322 1.06109 4.23235 1.36715 4.62599 1.36715H8.33102C7.55075 1.83594 6.84607 2.41152 6.2393 3.07568H1.39469C1.00105 3.07572 0.681923 3.38182 0.681923 3.75934C0.681923 4.13686 1.00105 4.44292 1.39469 4.44292H5.20817C4.38584 5.7804 3.91318 7.33818 3.91318 9.00002C3.91318 10.9337 4.55251 12.7269 5.63885 14.1955H3.61648C3.22284 14.1955 2.90371 14.5016 2.90371 14.8791C2.90371 15.2566 3.22284 15.5627 3.61648 15.5627H6.88293C7.3284 15.9635 7.81337 16.3219 8.33102 16.6328H1.46821C1.07457 16.6328 0.755443 16.9389 0.755443 17.3164C0.755443 17.6939 1.07457 18 1.46821 18H13.2976C18.4722 18 22.6819 13.9626 22.6819 8.99998C22.6819 4.03738 18.4721 0 13.2976 0ZM13.2976 16.6329C8.90908 16.6329 5.3388 13.2089 5.3388 9.00006C5.3388 4.79125 8.90908 1.36719 13.2976 1.36719C17.6861 1.36719 21.2563 4.79125 21.2563 9.00002C21.2563 13.2088 17.6861 16.6329 13.2976 16.6329Z" fill="#727272"/>
<path d="M13.2976 3.41653C10.0873 3.41653 7.47561 5.9213 7.47561 9.00007C7.47561 10.8361 8.40455 12.4678 9.83524 13.4861C9.84835 13.4967 9.86137 13.5074 9.87551 13.5172C9.8914 13.5283 9.90769 13.5386 9.92415 13.5483C10.8765 14.1998 12.0412 14.5836 13.2976 14.5836C14.554 14.5836 15.7186 14.1998 16.671 13.5483C16.6875 13.5386 16.7038 13.5283 16.7197 13.5172C16.7338 13.5074 16.7468 13.4966 16.7599 13.4861C18.1906 12.4678 19.1196 10.8361 19.1196 9.00007C19.1196 5.92134 16.5078 3.41653 13.2976 3.41653ZM14.0104 4.83944C15.4013 5.05789 16.5748 5.90432 17.2025 7.06448L15.3567 7.63968C15.0361 7.19466 14.563 6.85844 14.0104 6.70056V4.83944H14.0104ZM14.3737 9.00003C14.3737 9.56913 13.891 10.0321 13.2976 10.0321C12.7042 10.0321 12.2214 9.56917 12.2214 9.00003C12.2214 8.43093 12.7042 7.96795 13.2976 7.96795C13.891 7.96795 14.3737 8.43093 14.3737 9.00003ZM12.5848 4.83944V6.70056C12.0321 6.85844 11.559 7.19466 11.2384 7.63968L9.39266 7.06448C10.0204 5.90432 11.1939 5.05785 12.5848 4.83944ZM10.1723 11.9624C9.38695 11.2004 8.90119 10.1536 8.90119 9.00003C8.90119 8.78401 8.91829 8.57174 8.95112 8.36438L10.7974 8.93974C10.7969 8.95985 10.7958 8.9798 10.7958 9.00003C10.7958 9.54795 10.9887 10.0533 11.3123 10.4576L10.1723 11.9624ZM13.2976 13.2164C12.5886 13.2164 11.9183 13.0544 11.3247 12.7672L12.4649 11.2622C12.7255 11.3507 13.0057 11.3994 13.2976 11.3994C13.5895 11.3994 13.8696 11.3507 14.1303 11.2622L15.2705 12.7672C14.6768 13.0543 14.0066 13.2164 13.2976 13.2164ZM16.4228 11.9624L15.2828 10.4577C15.6064 10.0533 15.7993 9.54799 15.7993 9.00007C15.7993 8.97984 15.7983 8.95989 15.7977 8.93978L17.644 8.36442C17.6773 8.5748 17.694 8.78729 17.6939 9.00007C17.694 10.1536 17.2083 11.2003 16.4228 11.9624Z" fill="#727272"/>
</svg>
