<svg width="26" height="18" viewBox="0 0 26 18" fill="none" xmlns="http://www.w3.org/2000/svg">
<path d="M25.6127 8.09985L24.4029 5.46442C24.3393 5.32593 24.2353 5.20821 24.1035 5.12556C23.9716 5.04291 23.8177 4.99891 23.6603 4.99891H21.6553C21.4401 4.99891 21.2336 5.08118 21.0813 5.22762C20.9291 5.37407 20.8436 5.57269 20.8436 5.77979V7.01078H20.2199V5.99792C20.2199 5.79081 20.1344 5.59219 19.9822 5.44575C19.8299 5.29931 19.6235 5.21703 19.4082 5.21703H17.2469V3.08626C17.2469 2.87916 17.1614 2.68054 17.0092 2.53409C16.8569 2.38765 16.6504 2.30538 16.4352 2.30538H12.4418V1.56177H16.4352C16.6504 1.56177 16.8569 1.4795 17.0092 1.33305C17.1614 1.18661 17.2469 0.987987 17.2469 0.780884C17.2469 0.573781 17.1614 0.37516 17.0092 0.228716C16.8569 0.0822714 16.6504 4.36438e-09 16.4352 0H6.82515C6.60986 4.36438e-09 6.40338 0.0822714 6.25114 0.228716C6.09891 0.37516 6.01338 0.573781 6.01338 0.780884C6.01338 0.987987 6.09891 1.18661 6.25114 1.33305C6.40338 1.4795 6.60986 1.56177 6.82515 1.56177H10.8185V2.30538H6.82515C6.60986 2.30538 6.40338 2.38765 6.25114 2.53409C6.09891 2.68054 6.01338 2.87916 6.01338 3.08626V3.73533H4.23248C4.01718 3.73533 3.81071 3.8176 3.65847 3.96405C3.50624 4.11049 3.42071 4.30911 3.42071 4.51622V8.70665H2.30545V4.51622C2.30545 4.30911 2.21993 4.11049 2.06769 3.96405C1.91546 3.8176 1.70898 3.73533 1.49369 3.73533C1.27839 3.73533 1.07192 3.8176 0.919684 3.96405C0.767448 4.11049 0.681923 4.30911 0.681923 4.51622V14.4591C0.681923 14.8904 1.04538 15.2399 1.49369 15.2399C1.942 15.2399 2.30545 14.8904 2.30545 14.4591V10.2684H3.42071V14.4591C3.42071 14.6662 3.50624 14.8648 3.65847 15.0112C3.81071 15.1577 4.01718 15.2399 4.23248 15.2399H7.38635L10.591 17.8181C10.737 17.9356 10.9214 18 11.1118 18H19.4083C19.6236 18 19.83 17.9177 19.9823 17.7713C20.1345 17.6248 20.22 17.4262 20.22 17.2191V15.0904H20.8437V16.3214C20.8437 16.5285 20.9292 16.7271 21.0815 16.8736C21.2337 17.02 21.4402 17.1023 21.6555 17.1023H23.6604C23.8178 17.1023 23.9717 17.0583 24.1036 16.9756C24.2354 16.893 24.3395 16.7753 24.403 16.6368L25.6128 14.0014C25.6584 13.902 25.6819 13.7946 25.6819 13.686V8.41522C25.6819 8.30661 25.6583 8.19919 25.6127 8.09985ZM24.0584 13.5214L23.1316 15.5406H22.4672V14.3096C22.4672 14.1025 22.3817 13.9039 22.2295 13.7575C22.0772 13.611 21.8708 13.5288 21.6555 13.5288H19.4083C19.193 13.5288 18.9865 13.611 18.8343 13.7575C18.682 13.9039 18.5965 14.1025 18.5965 14.3096V16.4383H11.4064L8.20179 13.8602C8.05574 13.7426 7.87138 13.6783 7.68097 13.6783H5.04424V5.2971H6.82515C6.93175 5.2971 7.03731 5.2769 7.1358 5.23766C7.23429 5.19842 7.32377 5.1409 7.39915 5.06838C7.47453 4.99587 7.53433 4.90979 7.57512 4.81505C7.61592 4.72031 7.63691 4.61876 7.63691 4.51622V3.86715H15.6235V5.99813C15.6235 6.20523 15.709 6.40385 15.8613 6.55029C16.0135 6.69674 16.22 6.77901 16.4353 6.77901H18.5965V7.79187C18.5965 7.99897 18.682 8.19759 18.8343 8.34404C18.9865 8.49048 19.193 8.57275 19.4083 8.57275H21.6555C21.8708 8.57275 22.0772 8.49048 22.2295 8.34404C22.3817 8.19759 22.4672 7.99897 22.4672 7.79187V6.56078H23.1316L24.0584 8.58004V13.5214Z" fill="#727272"/>
</svg>
