<svg width="14" height="22" viewBox="0 0 14 22" fill="none" xmlns="http://www.w3.org/2000/svg">
<path d="M1.26326 14.3059H5.8079L4.89406 20.8581C4.86609 21.0591 4.89063 21.2666 4.96374 21.4472C5.03686 21.6279 5.15431 21.7712 5.29725 21.8541C5.44018 21.9371 5.60031 21.955 5.75193 21.9048C5.90356 21.8546 6.03788 21.7394 6.13335 21.5775L13.4854 9.10515C13.5649 8.97025 13.6139 8.80898 13.6268 8.63958C13.6397 8.47019 13.6161 8.29945 13.5586 8.1467C13.5011 7.99394 13.412 7.86528 13.3013 7.77529C13.1907 7.68529 13.063 7.63756 12.9327 7.63749H8.38809L9.30193 1.08536C9.3299 0.884318 9.30536 0.676832 9.23224 0.4962C9.15913 0.315567 9.04168 0.172263 8.89874 0.089288C8.75581 0.00631251 8.59568 -0.0115225 8.44405 0.0386454C8.29243 0.0888133 8.1581 0.204075 8.06263 0.365931L0.710598 12.8383C0.631108 12.9732 0.582121 13.1345 0.569183 13.3039C0.556245 13.4732 0.579875 13.644 0.637395 13.7967C0.694915 13.9495 0.784028 14.0782 0.894641 14.1681C1.00525 14.2581 1.13295 14.3059 1.26326 14.3059ZM7.4134 4.45532L6.86493 8.38572C6.84661 8.51712 6.85061 8.65218 6.87666 8.78133C6.90271 8.91048 6.95016 9.03058 7.01567 9.13313C7.08117 9.23568 7.16312 9.31817 7.25573 9.37477C7.34833 9.43137 7.44933 9.46069 7.55156 9.46067H11.5145L6.78259 17.4881L7.33106 13.5577C7.34938 13.4263 7.34537 13.2913 7.31933 13.1621C7.29328 13.033 7.24582 12.9129 7.18032 12.8103C7.11482 12.7078 7.03286 12.6253 6.94026 12.5687C6.84765 12.5121 6.74666 12.4827 6.64442 12.4828H2.68147L7.4134 4.45532Z" fill="black"/>
</svg>
