<svg width="35" height="28" viewBox="0 0 35 28" fill="none" xmlns="http://www.w3.org/2000/svg">
<g opacity="0.2" filter="url(#filter0_d_34_891)">
<path d="M30.4237 8C30.2558 7.6875 28.5981 6.88812 28.5981 6.88812C28.8864 6.72187 29.0835 6.6875 29.0835 6C29.0835 5.25 29.0801 5 28.6323 5H27.1129C27.1067 4.985 27.1 4.96937 27.0939 4.95375C26.1131 2.5625 25.9815 1.95812 24.5187 1.14437C22.5565 0.0549998 18.8779 0 17.4358 0C15.9937 0 12.3151 0.0549998 10.3546 1.14437C8.89006 1.95687 8.92645 2.375 7.77937 4.95375C7.77937 4.96062 7.76762 4.97875 7.75698 5H6.23594C5.79144 5 5.78808 5.25 5.78808 6C5.78808 6.6875 5.98514 6.72187 6.27345 6.88812C6.27345 6.88812 4.67179 7.75 4.44786 8C4.22393 8.25 4 10 4 13C4 16 4.22393 19 4.22393 19H4.89236C4.89236 19.875 5.00768 20 5.34358 20H9.82217C10.1581 20 10.27 19.875 10.27 19H24.6015C24.6015 19.875 24.7135 20 25.0494 20H29.6399C29.8639 20 29.9758 19.8125 29.9758 19H30.6476C30.6476 19 30.8716 15.9375 30.8716 13C30.8716 10.0625 30.5916 8.3125 30.4237 8ZM10.1166 10.8087C9.09704 10.9332 8.07223 10.997 7.04656 11C5.9034 11 5.86421 11.0819 5.7836 10.285C5.75327 9.92027 5.76286 9.55277 5.81215 9.19062L5.84742 9H6.01537C6.68716 9 7.31808 9.03188 8.50938 9.42375C9.1153 9.62673 9.6852 9.94517 10.1939 10.365C10.438 10.5625 10.494 10.75 10.494 10.75L10.1166 10.8087ZM23.9533 15.3087L23.7058 16H11.1657C11.1657 16 11.1876 15.9619 10.8858 15.3012C10.6619 14.8125 10.9418 14.5 11.3846 14.3225C12.2423 13.9775 14.7486 13 17.4358 13C20.1229 13 22.6791 13.8425 23.5099 14.3225C23.8178 14.5 24.2001 14.625 23.9533 15.3125V15.3087ZM9.56577 6.77563C9.38495 6.78725 9.20373 6.78875 9.02274 6.78C9.16886 6.49 9.25003 6.16688 9.39279 5.82938C9.84065 4.76688 10.3529 3.56437 11.2648 3.0575C12.5827 2.325 15.314 1.995 17.4358 1.995C19.5575 1.995 22.2889 2.3225 23.6067 3.0575C24.5187 3.56437 25.0287 4.7675 25.4788 5.82938C25.6226 6.17 25.7027 6.49563 25.8527 6.7875C25.7408 6.79438 25.612 6.7875 25.3047 6.77563H9.56577ZM29.032 10.2825C28.9122 11.0625 29.0241 11 27.825 11C26.7993 10.997 25.7745 10.9332 24.7549 10.8087C24.5954 10.7769 24.55 10.4763 24.6777 10.365C25.1838 9.94051 25.7545 9.62163 26.3622 9.42375C27.5535 9.03188 28.2242 8.97938 28.8864 9.00563C28.9309 9.00752 28.9732 9.02772 29.0051 9.06234C29.0371 9.09695 29.0564 9.14354 29.0594 9.19312C29.0911 9.55694 29.0819 9.92374 29.032 10.285V10.2825Z" fill="#CCCCCC"/>
</g>
<defs>
<filter id="filter0_d_34_891" x="0" y="0" width="34.8716" height="28" filterUnits="userSpaceOnUse" color-interpolation-filters="sRGB">
<feFlood flood-opacity="0" result="BackgroundImageFix"/>
<feColorMatrix in="SourceAlpha" type="matrix" values="0 0 0 0 0 0 0 0 0 0 0 0 0 0 0 0 0 0 127 0" result="hardAlpha"/>
<feOffset dy="4"/>
<feGaussianBlur stdDeviation="2"/>
<feComposite in2="hardAlpha" operator="out"/>
<feColorMatrix type="matrix" values="0 0 0 0 0 0 0 0 0 0 0 0 0 0 0 0 0 0 0.25 0"/>
<feBlend mode="normal" in2="BackgroundImageFix" result="effect1_dropShadow_34_891"/>
<feBlend mode="normal" in="SourceGraphic" in2="effect1_dropShadow_34_891" result="shape"/>
</filter>
</defs>
</svg>
